{"accessors" : [{"bufferView" : 0, "byteOffset" : 0, "componentType" : 5123, "count" : 90000, "type" : "SCALAR", "max" : [23232], "min" : [0]}, {"bufferView" : 1, "byteOffset" : 0, "componentType" : 5126, "count" : 23233, "type" : "VEC3", "max" : [0.8201779723167419, 1.004776954650879, 0.28149399161338806], "min" : [-0.7984499931335449, -1.0020469427108765, -0.2833560109138489], "name" : "POSITION"}, {"bufferView" : 1, "byteOffset" : 12, "componentType" : 5126, "count" : 23233, "type" : "VEC3", "max" : [0.9999510049819946, 0.9999959468841553, 0.9999858140945435], "min" : [-0.999930739402771, -0.9998504519462585, -1.000003695487976], "name" : "NORMAL"}, {"bufferView" : 1, "byteOffset" : 24, "componentType" : 5126, "count" : 23233, "type" : "VEC2", "max" : [0.99853515625, 1.99853515625], "min" : [0.0012331008911132812, 1.0077476501464844], "name" : "TEXCOORD_0"}], "asset" : {"generator" : "Aspose.3D 24.9.1", "version" : "2.0"}, "buffers" : [{"uri" : "data:application/octet-stream;base64,", "byteLength" : 923464}], "bufferViews" : [{"buffer" : 0, "byteOffset" : 0, "byteLength" : 180000, "target" : 34963}, {"buffer" : 0, "byteOffset" : 180004, "byteLength" : 743456, "byteStride" : 32, "target" : 34962}], "images" : [{"uri" : "data:image/jpeg;base64,"}], "materials" : [{"pbrMetallicRoughness" : {"baseColorFactor" : [1, 1, 1, 1], "baseColorTexture" : {"index" : 0, "texCoord" : 0}, "metallicFactor" : 0, "roughnessFactor" : 0.8}, "emissiveFactor" : [0, 0, 0], "alphaMode" : "OPAQUE", "doubleSided" : true}], "meshes" : [{"primitives" : [{"attributes" : {"POSITION" : 1, "NORMAL" : 2, "TEXCOORD_0" : 3}, "indices" : 0, "material" : 0, "mode" : 4}]}], "nodes" : [{"mesh" : 0, "name" : "Node #0"}], "samplers" : [{"magFilter" : 9729, "minFilter" : 9987, "wrapS" : 10497, "wrapT" : 10497}], "scene" : 0, "scenes" : [{"nodes" : [0]}], "textures" : [{"sampler" : 0, "source" : 0, "name" : ""}]}