{
  "accessors": [
    {
      "bufferView": 0,
      "byteOffset": 0,
      "componentType": 5123,
      "count": 89997,
      "type": "SCALAR",
      "max": [25848],
      "min": [0]
    },
    {
      "bufferView": 1,
      "byteOffset": 0,
      "componentType": 5126,
      "count": 25849,
      "type": "VEC3",
      "max": [
        0.853734016418457, 1.001155972480774, 0.5607489943504333
      ],
      "min": [
        -0.8557170033454895, -1.0004980564117432, -0.5629590153694153
      ],
      "name": "POSITION"
    },
    {
      "bufferView": 1,
      "byteOffset": 12,
      "componentType": 5126,
      "count": 25849,
      "type": "VEC3",
      "max": [
        0.9999587535858154, 1.0000041723251343, 1.0000003576278687
      ],
      "min": [
        -0.9998716115951538, -1.0000040531158447, -0.9999679327011108
      ],
      "name": "NORMAL"
    },
    {
      "bufferView": 1,
      "byteOffset": 24,
      "componentType": 5126,
      "count": 25849,
      "type": "VEC2",
      "max": [0.998046875, 1.99853515625],
      "min": [0.0015039443969726562, 1.0015039443969727],
      "name": "TEXCOORD_0"
    }
  ],
  "asset": { "generator": "Aspose.3D 24.9.1", "version": "2.0" },
  "buffers": [
    {
      "uri": "data:application/octet-stream;base64,",
      "byteLength": 1007172
    }
  ],
  "bufferViews": [
    {
      "buffer": 0,
      "byteOffset": 0,
      "byteLength": 179996,
      "target": 34963
    },
    {
      "buffer": 0,
      "byteOffset": 180000,
      "byteLength": 827168,
      "byteStride": 32,
      "target": 34962
    }
  ],
  "images": [
    {
      "uri": "data:image/jpeg;base64,"
    }
  ],
  "materials": [
    {
      "pbrMetallicRoughness": {
        "baseColorFactor": [1, 1, 1, 1],
        "baseColorTexture": { "index": 0, "texCoord": 0 },
        "metallicFactor": 0,
        "roughnessFactor": 0.8
      },
      "emissiveFactor": [0, 0, 0],
      "alphaMode": "OPAQUE",
      "doubleSided": true
    }
  ],
  "meshes": [
    {
      "primitives": [
        {
          "attributes": {
            "POSITION": 1,
            "NORMAL": 2,
            "TEXCOORD_0": 3
          },
          "indices": 0,
          "material": 0,
          "mode": 4
        }
      ]
    }
  ],
  "nodes": [{ "mesh": 0, "name": "Node #0" }],
  "samplers": [
    {
      "magFilter": 9729,
      "minFilter": 9987,
      "wrapS": 10497,
      "wrapT": 10497
    }
  ],
  "scene": 0,
  "scenes": [{ "nodes": [0] }],
  "textures": [{ "sampler": 0, "source": 0, "name": "" }]
}
